HIERARCHY
ROOT hip
{
	OFFSET 0.000000 0.000000 0.000000 
	CHANNELS 6 Xposition Yposition Zposition Xrotation Zrotation Yrotation
	JOINT abdomen
	{
		OFFSET 0.000000 3.402643 0.000000 
		CHANNELS 3 Xrotation Zrotation Yrotation
		JOINT chest
		{
			OFFSET 0.000000 8.438565 -0.680529 
			CHANNELS 3 Xrotation Zrotation Yrotation
			JOINT neck
			{
				OFFSET 0.000000 10.207942 -0.272212 
				CHANNELS 3 Xrotation Zrotation Yrotation
				JOINT head
				{
					OFFSET 0.000000 3.130431 0.000000 
					CHANNELS 3 Xrotation Zrotation Yrotation
					End Site
					{
						OFFSET 0.000000 3.130435 0.000000 
					}
				}
			}
			JOINT lCollar
			{
				OFFSET 3.470700 6.669187 -0.816635 
				CHANNELS 3 Yrotation Zrotation Xrotation
				JOINT lShldr
				{
					OFFSET 3.198488 0.000000 0.000000 
					CHANNELS 3 Zrotation Yrotation Xrotation
					JOINT lForeArm
					{
						OFFSET 10.139888 0.000000 0.000000 
						CHANNELS 3 Yrotation Zrotation Xrotation
						JOINT lHand
						{
							OFFSET 8.370511 0.000000 0.000000 
							CHANNELS 3 Zrotation Yrotation Xrotation
							End Site
							{
								OFFSET 4.083176 0.000000 0.000000 
							}
						}
					}
				}
			}
			JOINT rCollar
			{
				OFFSET -3.470700 6.669187 -0.816635 
				CHANNELS 3 Yrotation Zrotation Xrotation
				JOINT rShldr
				{
					OFFSET -3.198488 0.000000 0.000000 
					CHANNELS 3 Zrotation Yrotation Xrotation
					JOINT rForeArm
					{
						OFFSET -10.139888 0.000000 0.000000 
						CHANNELS 3 Yrotation Zrotation Xrotation
						JOINT rHand
						{
							OFFSET -8.370511 0.000000 0.000000 
							CHANNELS 3 Zrotation Yrotation Xrotation
							End Site
							{
								OFFSET -4.083176 0.000000 0.000000 
							}
						}
					}
				}
			}
		}
	}
	JOINT lThigh
	{
		OFFSET 5.308129 -1.633274 1.361059 
		CHANNELS 3 Xrotation Zrotation Yrotation
		JOINT lShin
		{
			OFFSET -2.041588 -20.007561 0.000000 
			CHANNELS 3 Xrotation Zrotation Yrotation
			JOINT lFoot
			{
				OFFSET 0.000000 -19.190928 -1.224953 
				CHANNELS 3 Xrotation Yrotation Zrotation
				End Site
				{
					OFFSET 0.000000 -2.449906 4.627600 
				}
			}
		}
	}
	JOINT rThigh
	{
		OFFSET -5.308129 -1.633274 1.361059 
		CHANNELS 3 Xrotation Zrotation Yrotation
		JOINT rShin
		{
			OFFSET 2.041588 -20.007561 0.000000 
			CHANNELS 3 Xrotation Zrotation Yrotation
			JOINT rFoot
			{
				OFFSET 0.000000 -19.190928 -1.224953 
				CHANNELS 3 Xrotation Yrotation Zrotation
				End Site
				{
					OFFSET 0.000000 -2.449906 4.627600 
				}
			}
		}
	}
}
MOTION
Frames: 18
Frame Time: 0.033333
0.348686 45.792439 1.044192 1.368964 -2.919090 2.234552 0.000000 0.000000 0.000000 5.801103 0.602368 6.428483 24.172342 4.134042 0.197374 -3.939811 -2.688274 -6.755848 2.911963 10.463575 24.035730 -71.042236 -7.536456 -11.615623 -46.285591 -29.583483 93.722466 -18.393883 4.386060 -59.597778 -22.331305 -7.293012 21.376141 46.355419 9.433939 57.055008 75.668640 -20.882795 63.053562 38.192574 -16.813335 -80.687508 19.142725 0.597835 16.544464 1.911650 3.796632 1.546010 15.993172 -26.649467 -3.139533 17.092491 2.694443 1.685993 0.721036 -1.863212 -1.143638 5.643642 4.874674 16.180948 
0.329165 45.849171 1.053644 0.234678 -2.910132 2.126277 0.000000 0.000000 0.000000 7.353976 0.639230 6.391195 23.929470 3.900755 0.179912 -4.130725 -2.209953 -6.268664 2.873017 10.155063 24.057371 -69.673843 -9.017708 -12.209159 -46.585197 -29.894283 94.580582 -18.185467 4.765239 -59.645657 -21.681902 -6.903271 21.640364 45.437119 10.689982 56.406456 74.382072 -20.801163 59.093964 36.004642 -19.718201 -80.111420 20.368153 0.782143 16.489758 2.047616 3.590871 1.486585 15.620429 -26.556845 -3.443817 18.067072 2.420654 1.603375 1.097154 -1.194428 -1.004016 5.179458 4.803327 15.292237 
0.277113 45.902122 0.974394 -0.234771 -3.330050 1.771427 0.000000 0.000000 0.000000 8.409660 1.062671 6.446312 23.684479 3.573911 0.160130 -4.351272 -1.665511 -5.769437 2.990557 10.157536 24.029211 -68.884308 -10.525851 -12.502549 -47.666416 -29.399403 94.696281 -18.244463 6.062774 -60.020569 -20.917835 -6.725638 21.821859 44.830650 12.116415 55.888355 73.168304 -21.230572 55.474979 33.569969 -22.761578 -79.356888 20.458897 1.448016 16.703873 3.014493 3.350764 1.370142 14.700719 -25.753033 -3.332079 17.735924 2.713898 1.685000 2.355283 -0.856880 -0.811682 4.919925 5.225608 15.361444 
0.262152 45.950706 0.817156 -0.146797 -3.740222 1.581821 0.000000 0.000000 0.000000 9.153694 1.532970 6.526454 23.327911 3.426832 0.149734 -4.369895 -1.522635 -5.782199 2.487556 10.521066 24.122896 -68.588882 -12.193481 -12.544220 -48.914787 -28.152996 93.194397 -18.660538 7.102643 -60.375900 -20.325495 -6.852890 21.859575 44.182808 13.853340 55.295380 72.228737 -21.776958 52.206905 31.832748 -26.044912 -78.571442 19.586021 1.895365 16.958841 4.598322 3.497213 1.290542 13.431599 -24.762711 -2.697191 16.560917 3.095476 1.815447 3.903078 -0.810293 -0.704638 4.949771 5.644981 16.403757 
0.291306 45.954861 0.606868 0.391382 -3.564370 1.605967 0.000000 0.000000 0.000000 9.651290 1.386354 6.466373 22.773947 3.575506 0.161852 -4.507977 -1.721526 -6.142241 1.480201 11.489184 24.317247 -68.275803 -14.202460 -12.581133 -49.926292 -27.504431 91.766388 -18.716875 9.348228 -61.210728 -19.798748 -7.368392 21.742460 43.781368 15.893814 54.770252 71.282410 -22.585884 49.432758 31.025158 -29.108498 -77.872093 17.879669 1.504468 16.967346 6.267702 4.150908 1.321450 12.519546 -24.308290 -2.052302 14.993962 2.928897 1.761071 5.157661 -0.995237 -0.621821 5.191495 5.933403 17.848049 
0.278463 45.935200 0.318675 1.301116 -3.397563 1.563059 0.000000 0.000000 0.000000 10.089924 1.144141 6.395142 22.034351 3.742086 0.180809 -4.872244 -2.070346 -6.418387 0.476416 12.594036 24.541861 -67.627182 -16.724091 -12.754960 -50.701046 -27.057426 90.497810 -18.291807 12.481709 -62.254482 -19.057016 -7.975851 21.637383 43.524742 18.320740 54.222527 69.930717 -23.546085 45.952847 29.430691 -32.484009 -76.777168 15.463632 1.163254 17.035336 8.055074 4.912508 1.377586 12.099965 -24.317404 -1.823695 12.900088 2.939729 1.789206 6.518125 -1.366944 -0.635178 5.283358 6.094072 18.764484 
0.234806 45.983604 -0.035914 1.986012 -3.445200 1.520859 0.000000 0.000000 0.000000 11.173895 1.082602 6.337028 21.192362 3.749478 0.189358 -5.148253 -2.324070 -6.462725 -0.670934 13.232294 24.840055 -66.475853 -19.819555 -13.155358 -50.990276 -25.613199 88.162872 -17.242071 14.418370 -62.722721 -18.005732 -8.242882 21.713638 42.745792 21.017488 53.336452 68.111572 -24.531590 40.635258 25.968716 -36.461605 -74.850578 13.065220 1.153153 17.178482 9.788421 5.612705 1.414266 12.076639 -24.570446 -1.669503 10.609982 3.162755 1.880777 8.387232 -1.661120 -0.524016 5.037920 5.984857 19.226736 
0.202205 46.022751 -0.399024 2.533876 -3.443903 1.282923 0.000000 0.000000 0.000000 12.677821 1.019452 6.254844 20.236977 3.522740 0.176537 -5.255759 -2.323001 -6.194697 -1.607068 14.236548 25.000000 -65.702301 -23.167007 -13.375144 -51.087082 -23.487137 85.291695 -16.107565 15.353483 -62.807018 -16.751789 -8.879798 21.730953 41.899609 23.877090 52.331345 66.427429 -25.538776 35.071182 22.449650 -39.835518 -72.780899 10.897585 1.103785 17.272711 11.328053 6.250597 1.472704 12.286592 -24.885580 -1.899272 8.169717 3.348328 1.972639 10.764318 -1.945732 -0.420956 4.503434 5.910258 19.384647 
0.217624 46.006660 -0.791814 3.540375 -3.109301 1.106304 0.000000 0.000000 0.000000 14.024396 0.663219 6.113022 18.998301 3.272758 0.165214 -5.294472 -2.284690 -5.997410 -2.396005 16.033615 25.000000 -65.677002 -26.743898 -13.265392 -51.395981 -21.262657 82.562950 -15.299619 16.687153 -63.028069 -15.807554 -10.154480 21.519352 41.455475 26.997274 51.421459 64.902328 -26.767756 30.778860 20.240639 -42.143173 -71.221817 7.966435 0.576657 17.221775 13.231208 7.118731 1.541043 12.583974 -25.510286 -2.777957 4.931850 3.008014 1.929313 13.756852 -2.042916 -0.171602 3.754161 5.650234 19.567575 
0.234529 46.029594 -1.283821 5.054885 -2.801579 1.158358 0.000000 0.000000 0.000000 15.351852 0.348436 5.974624 17.479822 3.174115 0.162109 -5.608181 -2.376242 -6.009838 -3.664081 17.680477 25.000000 -65.128441 -30.239050 -13.430265 -52.272411 -18.628059 79.480499 -15.075949 18.221573 -63.424011 -15.096057 -11.266014 21.340433 40.605846 30.285439 50.199215 63.351089 -28.686920 28.026321 19.162945 -43.543533 -70.251701 3.581759 0.107338 17.164213 16.447527 8.326412 1.607928 12.619917 -26.226507 -3.764941 0.702839 2.498080 1.877218 17.261080 -1.779839 0.169800 2.980080 5.163996 20.339775 
0.210824 46.076298 -1.846486 6.717113 -2.812623 1.338719 0.000000 0.000000 0.000000 16.963142 0.308245 5.875324 15.865978 3.199353 0.169634 -6.079328 -2.550729 -6.089937 -5.443266 19.203457 25.000000 -63.757324 -33.590660 -14.024571 -53.365463 -15.513598 76.170807 -15.041166 19.288589 -63.712517 -14.061109 -12.206438 21.317068 39.292686 33.281677 48.726841 61.737583 -31.419451 25.796837 17.980095 -44.490532 -69.410141 -1.796593 0.117057 17.144821 20.954147 9.682047 1.604115 12.371438 -26.457056 -4.260643 -3.792089 2.318998 1.956559 20.635925 -1.513760 0.495815 2.247752 4.633964 22.262135 
0.146200 46.063892 -2.411699 8.401064 -3.101194 1.602391 0.000000 0.000000 0.000000 18.750687 0.480862 5.817608 14.341887 3.338982 0.185002 -6.531190 -2.724524 -6.246204 -7.413826 20.924156 25.000000 -61.832146 -36.860630 -14.917885 -54.366711 -12.093367 73.029472 -15.015814 19.944641 -63.872807 -12.757236 -13.187578 21.394951 37.684120 35.799114 47.151756 59.969841 -34.608799 23.051140 16.765081 -45.079193 -68.733849 -7.482583 0.523325 17.097307 25.985132 11.009645 1.594820 12.226567 -26.606693 -4.934442 -8.233886 2.545892 2.156061 23.841564 -1.420647 0.810373 1.353788 3.852033 25.218212 
0.041332 45.958534 -2.943867 10.039831 -3.625414 1.740841 0.000000 0.000000 0.000000 20.734459 0.785455 5.766183 12.817200 3.460007 0.199551 -7.175520 -2.650283 -6.087690 -9.045770 22.520666 25.000000 -59.220036 -39.858982 -16.170298 -55.238644 -8.417844 69.604919 -15.108095 20.478363 -64.063774 -11.159450 -13.733140 21.677277 34.853172 37.960228 44.984097 58.091225 -37.838131 19.405844 15.649920 -45.734184 -68.039589 -12.939486 1.328604 17.003349 30.856127 12.095392 1.553867 11.978857 -27.052422 -6.483602 -12.662987 3.134374 2.483770 27.156296 -1.411741 1.134815 0.311533 2.884699 28.574020 
-0.036175 45.760529 -3.444040 11.560528 -3.913368 1.729347 0.000000 0.000000 0.000000 23.059464 0.871590 5.634795 11.182966 3.452639 0.214264 -7.934573 -2.377974 -5.632225 -10.352019 23.938335 25.000000 -55.891819 -42.499367 -17.808210 -55.663158 -4.855802 65.455475 -14.103844 21.802624 -64.124733 -9.369721 -13.994025 22.106010 30.655197 40.022038 42.069599 55.510166 -40.841801 15.053067 14.552510 -46.341358 -67.334358 -17.817837 1.833798 16.749094 35.157993 12.925335 1.477471 11.190059 -27.658653 -8.710189 -17.212008 3.368181 2.720828 30.927570 -1.177872 1.540605 -0.805177 2.222694 31.256107 
-0.041548 45.470730 -3.959060 13.282167 -3.830591 1.664262 0.000000 0.000000 0.000000 25.431911 0.732011 5.445823 9.303298 3.349434 0.209549 -8.439644 -2.110197 -5.339691 -11.614099 25.425423 25.000000 -51.800987 -44.725601 -19.843143 -55.620647 -1.482684 59.954880 -11.684614 23.595026 -63.776855 -7.620726 -14.832479 22.437733 26.304493 42.054817 38.972588 51.736660 -43.743031 10.361316 13.875834 -46.245399 -67.143547 -22.735544 1.871573 16.208015 39.204990 13.525023 1.394243 10.222469 -28.074335 -10.601972 -22.425251 2.957630 2.813205 35.366081 -0.577972 2.075551 -2.049796 1.778895 32.670719 
-0.028038 45.069923 -4.487400 15.295876 -3.674056 1.456466 0.000000 0.000000 0.000000 27.647375 0.441182 5.211643 7.229630 3.397472 0.222766 -8.927481 -2.039425 -5.186060 -12.743019 27.287201 25.000000 -46.904968 -46.033897 -22.237082 -56.059948 2.019596 54.397446 -10.381638 24.743366 -63.553230 -5.944358 -16.209568 22.730968 22.079382 43.932240 35.887028 46.936733 -46.448330 5.051624 13.630270 -45.855595 -67.286781 -28.123671 1.952847 15.494631 43.497921 13.835338 1.224794 9.072621 -27.066952 -10.438405 -28.346643 2.411784 2.937485 40.270756 0.176780 2.737609 -3.086007 1.111609 32.499275 
-0.037866 44.492622 -4.962480 17.475462 -3.521471 1.167261 0.000000 0.000000 0.000000 29.531256 0.025491 4.975382 5.312882 3.534570 0.233859 -9.708529 -1.974827 -4.815387 -13.388709 29.403162 25.000000 -41.574612 -46.806858 -24.790947 -56.873856 5.910867 52.109051 -12.057310 25.005129 -64.107773 -4.180849 -17.831024 23.107462 17.745329 45.279133 32.901669 41.393806 -48.804642 -1.023968 13.680919 -46.097912 -67.113876 -33.973076 2.304212 14.667428 48.509274 13.746949 0.963778 7.752501 -24.668474 -9.035868 -34.701187 2.011026 3.132847 45.685604 0.839615 3.400256 -3.713389 0.459693 32.098240 
-0.060231 43.718140 -5.343527 19.686350 -3.485391 0.843725 0.000000 0.000000 0.000000 30.986618 -0.234415 4.800592 3.796306 3.537163 0.234714 -10.115989 -1.701880 -4.404128 -13.703155 30.000000 25.000000 -35.888813 -47.963230 -27.523525 -56.165932 10.219529 51.939255 -14.400666 24.243538 -64.607971 -2.515851 -19.647884 23.526897 12.879069 46.295120 29.711021 35.031693 -50.280312 -7.136846 14.872117 -46.003845 -67.432533 -40.176426 3.004790 13.702176 54.220261 13.411780 0.594599 6.564021 -21.798410 -7.501009 -41.273293 1.815953 3.432047 51.587421 1.472880 4.094210 -4.165751 0.187533 32.364010 
